<mxfile host="app.diagrams.net" modified="2023-06-24T10:57:35.158Z" agent="Mozilla/5.0 (Windows NT 10.0; Win64; x64) AppleWebKit/537.36 (KHTML, like Gecko) Chrome/113.0.0.0 Safari/537.36 OPR/99.0.0.0 (Edition Yx GX)" version="21.5.0" etag="iGm26slthfQBTssk1Jd5" type="github">
  <diagram name="Страница 1" id="gLuoUgxs1ZDuPbv5Kvt7">
    <mxGraphModel>
      <root>
        <mxCell id="0" />
        <mxCell id="1" parent="0" />
      </root>
    </mxGraphModel>
  </diagram>
</mxfile>
